<?xml version="1.0" encoding="utf-8"?>
<svg xmlns="http://www.w3.org/2000/svg" width="49.59" height="24" viewBox="6.2 3 49.59 24"><path d="M9.12 21a2.82 2.82 0 00-2.92 2.72 2.86 2.86 0 002.92 2.92c1.6 0 2.72-1.38 2.72-2.92A2.77 2.77 0 009.12 21zM22.2 6.13V3.4h-4.1v23.08h4.1V10.13c.87-1.7 2.15-3.28 4.82-3.28 1.38 0 2 .2 3.13.87l1.43-3.85C30.81 3.31 29.9 3 28 3a6.53 6.53 0 00-5.8 3.13zM51.69 19.72c-1.44 1.85-3.95 3.44-6.62 3.44-4.2 0-5.95-2.57-5.95-6.93V3.41h-4.1v13.74c0 6.78 3.38 9.85 8.51 9.85 3.65 0 6.57-1.84 8.16-3.8v3.29h4.1V3.4h-4.1v16.3z"/></svg>